<?xml version="1.0" encoding="utf-8"?>
<!-- Generator: Adobe Illustrator 22.0.1, SVG Export Plug-In . SVG Version: 6.00 Build 0)  -->
<svg version="1.1" id="Layer_1" xmlns="http://www.w3.org/2000/svg" xmlns:xlink="http://www.w3.org/1999/xlink" x="0px" y="0px"
	 viewBox="0 0 1000 1000" style="enable-background:new 0 0 1000 1000;" xml:space="preserve">
<style type="text/css">
	.st0{fill:#2E5266;}
	.st1{fill:#E2C044;}
	.st2{fill:#6E8898;}
</style>
<g>
	<g>
		<path class="st0" d="M483.9,948.2C227.8,948.2,19.6,740,19.6,484S227.8,20,483.9,20s464.2,208.2,464.2,464.2
			c0,49.6-7.9,98.4-23.2,145c-3.5,10.4-14.6,15.8-24.7,12.6c-10.4-3.5-15.8-14.6-12.6-24.7c14.1-42.7,21.2-87.3,21.2-132.7
			c0-234.3-190.7-425-425-425s-425,190.4-425,424.7s190.7,425,425,425c46.1,0,91.5-7.4,134.7-21.7c10.4-3.5,21.2,2.2,24.7,12.3
			c3.5,10.4-2.2,21.5-12.3,24.7C583.8,940.3,534.2,948.2,483.9,948.2z"/>
	</g>
	<g>
		<path class="st1" d="M134.3,684c-3.9,0-7.9-2.2-9.9-5.9c-32.1-59.2-48.8-126.3-48.8-193.9C75.6,259,258.7,76,483.9,76
			c118.6,0,231.4,51.6,309.1,141.6c3.9,4.7,3.5,11.8-1.2,15.8c-4.7,3.9-11.8,3.5-15.8-1.2C702.4,147,596.1,98.2,483.9,98.2
			C271,98.2,98.1,271.3,98.1,484c0,63.9,16,127.3,46.1,183.3c3,5.4,1,12.3-4.4,15C138,683.5,136.1,684,134.3,684z"/>
	</g>
	<g>
		<path class="st2" d="M483.9,980c-1.2,0-2.2,0-3.5,0c-6.2,0-11.1-5.2-11.1-11.3s4.9-11.1,11.1-11.1l0,0
			c126.5,0.7,245.7-47.6,335.7-136.4S956.2,613.7,957,487.4c0-6.2,4.9-11.1,11.1-11.1l0,0c6.2,0,11.1,5.2,11.1,11.3
			c-1,132.5-53.3,256.5-147.5,349.5C738.7,929.2,615.1,980,483.9,980z"/>
	</g>
	<g>
		<path class="st0" d="M335.6,615.7c-5.7,0-11.1-3-14.3-8.1c-4.7-7.9-2.2-18.3,5.7-22.9l162.5-98.7V171c0-9.4,7.4-16.8,16.8-16.8
			c9.4,0,16.8,7.4,16.8,16.8v333.7L344.5,613C341.5,614.7,338.6,615.7,335.6,615.7z"/>
	</g>
	<g>
		<circle class="st1" cx="875.3" cy="484.2" r="14.3"/>
	</g>
	<g>
		<circle class="st1" cx="483.9" cy="873.7" r="14.3"/>
	</g>
</g>
</svg>
